<?xml version="1.0" standalone="no"?>
<!DOCTYPE svg PUBLIC "-//W3C//DTD SVG 20010904//EN"
 "http://www.w3.org/TR/2001/REC-SVG-20010904/DTD/svg10.dtd">
<svg version="1.0" xmlns="http://www.w3.org/2000/svg"
 width="900.000000pt" height="900.000000pt" viewBox="0 0 900.000000 900.000000"
 preserveAspectRatio="xMidYMid meet">
<metadata>
Created by potrace 1.11, written by Peter Selinger 2001-2013
</metadata>
<g transform="translate(0.000000,900.000000) scale(0.100000,-0.100000)"
fill="#000000" stroke="none">
<path d="M0 4500 l0 -4500 4500 0 4500 0 0 4500 0 4500 -4500 0 -4500 0 0
-4500z m4300 3411 c245 -20 414 -39 570 -66 87 -15 122 -21 260 -44 225 -39
319 -73 358 -129 63 -88 92 -276 92 -581 -1 -184 -22 -280 -82 -368 -42 -62
-72 -64 -243 -18 -33 9 -77 21 -97 26 -21 5 -55 13 -75 19 -21 5 -56 13 -78
19 -22 5 -103 26 -180 46 -77 19 -159 40 -182 45 -24 6 -62 14 -85 20 -365 84
-631 124 -922 140 -518 28 -982 -69 -1156 -240 -71 -70 -85 -99 -84 -174 2
-161 146 -313 425 -449 53 -26 101 -47 106 -47 6 0 24 -7 41 -16 17 -8 46 -18
64 -21 32 -5 37 -1 103 82 74 92 156 165 185 165 29 0 161 -140 204 -216 195
-348 377 -758 438 -994 40 -150 36 -230 -11 -272 -29 -26 -64 -39 -141 -54
-57 -10 -356 -7 -490 5 -148 14 -426 54 -526 75 -39 8 -115 29 -169 47 -129
41 -155 66 -155 150 0 41 8 76 25 115 26 59 31 84 16 84 -5 0 -38 16 -73 36
-34 20 -79 45 -98 56 -188 106 -392 327 -484 523 -117 247 -180 623 -156 921
15 188 36 273 106 420 85 179 279 356 509 465 100 47 234 99 257 99 9 0 19 4
22 9 3 5 20 11 38 14 18 3 51 10 73 16 164 45 345 72 614 90 79 6 146 13 149
16 10 9 689 -2 832 -14z m2320 -256 l0 -55 63 0 c36 0 68 -5 75 -12 15 -15 16
-134 1 -179 -7 -19 -23 -47 -38 -63 -29 -32 -114 -76 -148 -76 -15 0 -30 -15
-52 -54 -30 -55 -91 -125 -123 -142 -11 -6 -20 -33 -27 -87 -15 -110 -15 -117
11 -117 11 0 37 -17 57 -38 20 -21 44 -41 54 -45 9 -3 17 -13 17 -22 0 -14
-29 -15 -237 -13 -238 3 -268 8 -211 36 15 7 29 20 32 30 7 20 56 52 81 52 14
0 16 6 12 33 -3 17 -9 59 -13 92 -6 56 -10 63 -58 106 -28 25 -67 73 -86 106
-32 55 -38 60 -84 71 -68 16 -121 54 -146 102 -17 34 -20 56 -18 128 l3 87 73
3 72 3 0 54 0 55 345 0 345 0 0 -55z m-2263 -2789 c50 -26 102 -75 126 -120
17 -32 22 -58 22 -121 0 -88 -14 -125 -69 -183 -54 -58 -100 -77 -192 -77 -72
0 -86 3 -129 30 -96 59 -142 149 -132 258 9 97 80 188 173 223 49 18 158 13
201 -10z m1553 -320 c58 -9 125 -27 150 -39 l45 -22 0 -70 c-1 -58 -7 -83 -37
-150 -19 -44 -34 -84 -32 -90 3 -5 50 -32 107 -59 56 -27 126 -64 155 -82 29
-19 55 -34 58 -34 9 0 149 -108 204 -157 59 -53 151 -164 200 -241 97 -156
159 -351 209 -663 14 -86 14 -392 0 -461 -6 -29 -15 -78 -21 -108 -17 -82 -76
-226 -125 -302 -49 -78 -143 -176 -228 -239 -33 -24 -61 -47 -63 -51 -2 -5 -8
-8 -14 -8 -5 0 -22 -8 -36 -19 -64 -45 -204 -108 -327 -149 -372 -122 -646
-155 -1280 -156 -369 0 -499 6 -760 34 -125 13 -330 43 -475 69 -30 5 -71 13
-90 16 -105 19 -265 58 -292 71 -51 26 -91 81 -122 169 -24 67 -37 207 -38
410 -2 233 5 278 51 375 29 60 42 77 76 94 32 17 49 15 175 -19 47 -13 99 -26
115 -29 44 -10 84 -20 240 -61 176 -46 234 -61 340 -84 28 -6 79 -18 115 -26
152 -36 305 -62 550 -97 208 -29 688 -32 845 -5 362 63 571 157 652 294 93
160 -71 395 -377 540 -155 73 -311 133 -347 133 -14 0 -39 -20 -69 -55 -84
-97 -135 -121 -192 -91 -72 38 -293 298 -468 552 -219 318 -333 549 -318 644
16 96 142 142 469 169 72 6 148 13 170 15 22 1 184 2 360 1 242 -2 346 -7 425
-19z m-3092 -2188 c2 -278 5 -338 16 -338 7 0 19 -7 26 -15 11 -13 11 -20 0
-40 -11 -21 -11 -27 3 -43 23 -26 21 -41 -7 -53 -39 -18 -39 -63 0 -141 l34
-67 -40 14 c-40 14 -41 14 -50 -11 -6 -14 -10 -30 -10 -35 0 -24 -22 -4 -45
41 -14 28 -27 50 -30 50 -3 0 -18 -25 -33 -56 l-29 -57 -16 41 -17 41 -40 -14
-40 -14 20 39 c11 22 16 40 10 40 -5 0 -10 -7 -10 -15 0 -9 -11 -20 -24 -26
-39 -18 -39 -63 0 -141 l34 -67 -40 14 c-40 14 -41 14 -50 -11 -6 -14 -10 -30
-10 -35 0 -24 -22 -4 -45 41 -14 28 -27 50 -30 50 -3 0 -18 -25 -33 -56 l-29
-57 -16 41 -17 41 -40 -14 -40 -14 20 39 20 40 -290 0 -290 0 0 374 0 375 119
105 119 106 64 0 64 0 94 84 95 85 290 -2 290 -2 3 -337z"/>
<path d="M5975 7568 c21 -278 151 -489 299 -488 80 1 170 78 224 191 43 91 62
169 69 287 l6 102 -303 0 -303 0 8 -92z"/>
<path d="M5820 7506 c0 -65 12 -102 47 -138 25 -26 89 -55 99 -45 3 3 -2 31
-10 63 -8 33 -18 85 -22 117 l-7 57 -53 0 -54 0 0 -54z"/>
<path d="M6615 7513 c-4 -27 -15 -81 -25 -120 -20 -83 -17 -87 51 -53 58 30
79 71 79 153 l0 67 -49 0 -50 0 -6 -47z"/>
<path d="M6236 6973 c8 -93 12 -103 38 -103 20 0 24 6 30 46 3 26 6 62 6 80 0
33 -1 34 -39 34 l-40 0 5 -57z"/>
<path d="M6149 6810 l-24 -19 143 -1 c90 0 142 4 142 10 0 19 -51 30 -145 30
-78 0 -97 -3 -116 -20z"/>
<path d="M2260 2600 l0 -69 118 -3 117 -3 3 -42 3 -43 54 0 c68 0 85 -20 18
-21 -26 -1 -54 -1 -60 0 -8 1 -13 -9 -13 -24 l0 -25 125 0 c104 0 125 -2 125
-15 0 -13 -21 -15 -125 -15 -118 0 -125 -1 -125 -20 0 -19 7 -20 125 -20 104
0 125 -2 125 -15 0 -13 -21 -15 -125 -15 -118 0 -125 -1 -125 -20 0 -18 8 -20
122 -22 86 -2 123 -7 126 -15 3 -10 -26 -13 -122 -13 l-126 0 0 -25 c0 -24 3
-25 55 -25 30 0 55 -4 55 -10 0 -5 -25 -10 -55 -10 -48 0 -55 -3 -55 -20 0
-16 8 -19 55 -22 30 -2 55 -7 55 -13 0 -5 -25 -11 -55 -13 l-55 -3 0 -104 c0
-83 3 -105 14 -105 25 0 41 -29 28 -51 -19 -29 -14 -39 17 -39 37 0 59 25 44
50 -7 10 -9 26 -7 37 4 14 -3 25 -20 37 -31 20 -32 26 -6 56 15 17 17 27 9 42
-13 24 4 48 36 48 14 0 26 9 33 25 12 27 40 33 60 13 10 -10 17 -10 32 0 11 6
27 12 35 12 13 0 15 38 15 295 l0 295 -265 0 -265 0 0 -70z"/>
<path d="M2156 2593 l-69 -58 68 -3 c37 -2 69 -1 72 1 2 3 3 30 1 61 l-3 57
-69 -58z"/>
<path d="M1940 2400 l0 -100 -115 0 -115 0 0 -355 0 -355 279 0 c301 0 312 2
295 52 -4 13 -7 30 -6 39 2 9 -9 24 -23 33 -30 20 -31 29 -4 55 17 16 19 23 9
41 -14 27 2 50 35 50 14 0 26 9 33 25 12 27 40 33 60 13 10 -10 17 -10 32 0
11 6 26 12 34 12 12 0 14 42 14 254 1 253 1 254 -21 261 l-22 8 23 4 c17 3 22
11 22 34 l0 29 -265 0 -265 0 0 -100z m350 -140 c0 -6 -36 -10 -87 -10 -49 -1
-113 -1 -143 -2 -110 -1 -160 2 -160 12 0 6 72 10 195 10 123 0 195 -4 195
-10z m140 -75 c0 -13 -43 -15 -329 -15 -299 0 -354 4 -334 24 3 3 154 6 335 6
285 0 328 -2 328 -15z m0 -70 c0 -13 -43 -15 -329 -15 -299 0 -354 4 -334 24
3 3 154 6 335 6 285 0 328 -2 328 -15z m-2 -72 c3 -10 -67 -13 -327 -13 -300
0 -354 4 -334 24 4 3 153 5 331 4 250 -2 326 -6 330 -15z m-205 -59 c129 -12
66 -24 -128 -24 -116 0 -195 4 -195 9 0 15 217 25 323 15z m70 -79 c1 -6 -70
-11 -195 -13 -181 -2 -211 1 -191 22 11 11 383 2 386 -9z m-431 -75 c18 -11
43 -20 56 -20 16 0 22 -6 22 -24 0 -59 -51 -148 -96 -168 -21 -10 -28 -7 -55
18 -41 38 -69 95 -69 137 0 31 3 35 33 41 19 3 42 13 53 21 24 18 18 18 56 -5z"/>
<path d="M1821 2409 l-85 -74 83 -3 c46 -2 85 -1 88 1 2 3 3 38 1 78 l-3 73
-84 -75z"/>
</g>
</svg>
